{
  "accessors": [
    {
      "bufferView": 2,
      "componentType": 5126,
      "count": 11531,
      "max": [
        23.880199432373047,
        23.97719955444336,
        33.0
      ],
      "min": [
        -22.904499053955078,
        -21.02280044555664,
        0.0
      ],
      "type": "VEC3"
    },
    {
      "bufferView": 2,
      "byteOffset": 138372,
      "componentType": 5126,
      "count": 11531,
      "max": [
        1.0,
        0.9998325705528259,
        1.0
      ],
      "min": [
        -1.0,
        -0.999879002571106,
        -0.9999998807907104
      ],
      "type": "VEC3"
    },
    {
      "bufferView": 1,
      "componentType": 5126,
      "count": 11531,
      "max": [
        0.9782000184059143,
        0.9753000140190125
      ],
      "min": [
        0.03819999843835831,
        0.017000000923871994
      ],
      "type": "VEC2"
    },
    {
      "bufferView": 0,
      "componentType": 5125,
      "count": 63930,
      "type": "SCALAR"
    },
    {
      "bufferView": 2,
      "byteOffset": 276744,
      "componentType": 5126,
      "count": 4943,
      "max": [
        12.245800018310547,
        21.898700714111328,
        11.812899589538574
      ],
      "min": [
        -21.322399139404297,
        -13.444499969482422,
        0.0
      ],
      "type": "VEC3"
    },
    {
      "bufferView": 2,
      "byteOffset": 336060,
      "componentType": 5126,
      "count": 4943,
      "max": [
        1.0,
        0.8483981490135193,
        1.0
      ],
      "min": [
        -1.0,
        -0.9999964237213135,
        -1.0
      ],
      "type": "VEC3"
    },
    {
      "bufferView": 1,
      "byteOffset": 92248,
      "componentType": 5126,
      "count": 4943,
      "max": [
        0.636900007724762,
        0.9869999885559082
      ],
      "min": [
        0.05510000139474869,
        0.017000000923871994
      ],
      "type": "VEC2"
    },
    {
      "bufferView": 0,
      "byteOffset": 255720,
      "componentType": 5125,
      "count": 27474,
      "type": "SCALAR"
    },
    {
      "bufferView": 2,
      "byteOffset": 395376,
      "componentType": 5126,
      "count": 3265,
      "max": [
        14.40880012512207,
        15.704299926757813,
        11.998100280761719
      ],
      "min": [
        -13.429400444030762,
        -20.180700302124023,
        0.0
      ],
      "type": "VEC3"
    },
    {
      "bufferView": 2,
      "byteOffset": 434556,
      "componentType": 5126,
      "count": 3265,
      "max": [
        1.0,
        0.9953272938728333,
        0.9999998807907104
      ],
      "min": [
        -0.9983179569244385,
        -0.9974837303161621,
        -0.9999939203262329
      ],
      "type": "VEC3"
    },
    {
      "bufferView": 1,
      "byteOffset": 131792,
      "componentType": 5126,
      "count": 3265,
      "max": [
        0.6370999813079834,
        0.9872999787330627
      ],
      "min": [
        0.03660000115633011,
        0.017000000923871994
      ],
      "type": "VEC2"
    },
    {
      "bufferView": 0,
      "byteOffset": 365616,
      "componentType": 5125,
      "count": 17136,
      "type": "SCALAR"
    },
    {
      "bufferView": 2,
      "byteOffset": 473736,
      "componentType": 5126,
      "count": 139,
      "max": [
        4.78249979019165,
        15.020700454711914,
        11.297200202941895
      ],
      "min": [
        -13.426199913024902,
        -13.115599632263184,
        0.0
      ],
      "type": "VEC3"
    },
    {
      "bufferView": 2,
      "byteOffset": 475404,
      "componentType": 5126,
      "count": 139,
      "max": [
        1.0,
        0.9735997319221497,
        0.9999986886978149
      ],
      "min": [
        -0.7110067009925842,
        -0.9952126741409302,
        -0.9999992847442627
      ],
      "type": "VEC3"
    },
    {
      "bufferView": 1,
      "byteOffset": 157912,
      "componentType": 5126,
      "count": 139,
      "max": [
        0.619700014591217,
        0.9872000217437744
      ],
      "min": [
        0.0551999993622303,
        0.017000000923871994
      ],
      "type": "VEC2"
    },
    {
      "bufferView": 0,
      "byteOffset": 434160,
      "componentType": 5125,
      "count": 213,
      "type": "SCALAR"
    }
  ],
  "asset": {
    "extras": {
      "author": "Microsoft (https://sketchfab.com/microsoft)",
      "license": "CC-BY-4.0 (http://creativecommons.org/licenses/by/4.0/)",
      "source": "https://sketchfab.com/3d-models/leprechaun-hat-9a2b747db92c43b2b578dd08242a2f74",
      "title": "Leprechaun Hat"
    },
    "generator": "Sketchfab-12.68.0",
    "version": "2.0"
  },
  "bufferViews": [
    {
      "buffer": 0,
      "byteLength": 435012,
      "name": "floatBufferViews",
      "target": 34963
    },
    {
      "buffer": 0,
      "byteLength": 159024,
      "byteOffset": 435012,
      "byteStride": 8,
      "name": "floatBufferViews",
      "target": 34962
    },
    {
      "buffer": 0,
      "byteLength": 477072,
      "byteOffset": 594036,
      "byteStride": 12,
      "name": "floatBufferViews",
      "target": 34962
    }
  ],
  "buffers": [
    {
      "byteLength": 1071108,
      "uri": "scene.bin"
    }
  ],
  "images": [
    {
      "uri": "textures/wire_087225143_baseColor.jpeg"
    }
  ],
  "materials": [
    {
      "doubleSided": true,
      "name": "wire_087225143",
      "pbrMetallicRoughness": {
        "baseColorTexture": {
          "index": 0
        },
        "metallicFactor": 0.0,
        "roughnessFactor": 0.6
      }
    }
  ],
  "meshes": [
    {
      "name": "Object_0",
      "primitives": [
        {
          "attributes": {
            "NORMAL": 1,
            "POSITION": 0,
            "TEXCOORD_0": 2
          },
          "indices": 3,
          "material": 0,
          "mode": 4
        }
      ]
    },
    {
      "name": "Object_1",
      "primitives": [
        {
          "attributes": {
            "NORMAL": 5,
            "POSITION": 4,
            "TEXCOORD_0": 6
          },
          "indices": 7,
          "material": 0,
          "mode": 4
        }
      ]
    },
    {
      "name": "Object_2",
      "primitives": [
        {
          "attributes": {
            "NORMAL": 9,
            "POSITION": 8,
            "TEXCOORD_0": 10
          },
          "indices": 11,
          "material": 0,
          "mode": 4
        }
      ]
    },
    {
      "name": "Object_3",
      "primitives": [
        {
          "attributes": {
            "NORMAL": 13,
            "POSITION": 12,
            "TEXCOORD_0": 14
          },
          "indices": 15,
          "material": 0,
          "mode": 4
        }
      ]
    }
  ],
  "nodes": [
    {
      "children": [
        1
      ],
      "matrix": [
        1.0,
        0.0,
        0.0,
        0.0,
        0.0,
        2.220446049250313e-16,
        -1.0,
        0.0,
        0.0,
        1.0,
        2.220446049250313e-16,
        0.0,
        0.0,
        0.0,
        0.0,
        1.0
      ],
      "name": "Sketchfab_model"
    },
    {
      "children": [
        2,
        3,
        4,
        5
      ],
      "name": "8de33acbbf6342bc9a9914fcaeb0852a.obj.cleaner"
    },
    {
      "mesh": 0,
      "name": "Object_2"
    },
    {
      "mesh": 1,
      "name": "Object_3"
    },
    {
      "mesh": 2,
      "name": "Object_4"
    },
    {
      "mesh": 3,
      "name": "Object_5"
    }
  ],
  "samplers": [
    {
      "magFilter": 9729,
      "minFilter": 9987,
      "wrapS": 10497,
      "wrapT": 10497
    }
  ],
  "scene": 0,
  "scenes": [
    {
      "name": "Sketchfab_Scene",
      "nodes": [
        0
      ]
    }
  ],
  "textures": [
    {
      "sampler": 0,
      "source": 0
    }
  ]
}
