{
  "accessors": [
    {
      "bufferView": 2,
      "componentType": 5126,
      "count": 1234,
      "max": [
        1.429237961769104,
        2.427299976348877,
        1.455424427986145
      ],
      "min": [
        -3.392059564590454,
        -2.420435667037964,
        -1.188373327255249
      ],
      "type": "VEC3"
    },
    {
      "bufferView": 2,
      "byteOffset": 14808,
      "componentType": 5126,
      "count": 1234,
      "max": [
        0.8794668912887573,
        0.8290818929672241,
        0.9272335171699524
      ],
      "min": [
        -0.8967374563217163,
        -0.8278138637542725,
        -0.9275388717651367
      ],
      "type": "VEC3"
    },
    {
      "bufferView": 1,
      "componentType": 5126,
      "count": 1234,
      "max": [
        0.9866775870323181,
        0.9931268692016602
      ],
      "min": [
        0.013794999569654465,
        0.03936345875263214
      ],
      "type": "VEC2"
    },
    {
      "bufferView": 0,
      "componentType": 5125,
      "count": 6216,
      "type": "SCALAR"
    },
    {
      "bufferView": 2,
      "byteOffset": 29616,
      "componentType": 5126,
      "count": 2677,
      "max": [
        -1.2347733974456787,
        2.572617530822754,
        1.4541376829147339
      ],
      "min": [
        -6.241235733032227,
        -2.4799163341522217,
        -0.5728619694709778
      ],
      "type": "VEC3"
    },
    {
      "bufferView": 2,
      "byteOffset": 61740,
      "componentType": 5126,
      "count": 2677,
      "max": [
        0.9998869895935059,
        0.999664843082428,
        0.9947093725204468
      ],
      "min": [
        -0.999878466129303,
        -0.9981475472450256,
        -0.9962191581726074
      ],
      "type": "VEC3"
    },
    {
      "bufferView": 1,
      "byteOffset": 9872,
      "componentType": 5126,
      "count": 2677,
      "max": [
        0.9715222120285034,
        1.006556749343872
      ],
      "min": [
        0.009477227926254272,
        -2.220446049250313e-16
      ],
      "type": "VEC2"
    },
    {
      "bufferView": 0,
      "byteOffset": 24864,
      "componentType": 5125,
      "count": 8712,
      "type": "SCALAR"
    },
    {
      "bufferView": 2,
      "byteOffset": 93864,
      "componentType": 5126,
      "count": 2445,
      "max": [
        1.466855525970459,
        2.397562265396118,
        1.454489827156067
      ],
      "min": [
        -3.4458091259002686,
        -2.390655994415283,
        -1.2126723527908325
      ],
      "type": "VEC3"
    },
    {
      "bufferView": 2,
      "byteOffset": 123204,
      "componentType": 5126,
      "count": 2445,
      "max": [
        0.9977707862854004,
        0.9999983906745911,
        0.999158501625061
      ],
      "min": [
        -0.9995098114013672,
        -0.9999983310699463,
        -0.9571996927261353
      ],
      "type": "VEC3"
    },
    {
      "bufferView": 1,
      "byteOffset": 31288,
      "componentType": 5126,
      "count": 2445,
      "max": [
        0.45823216438293457,
        0.995411217212677
      ],
      "min": [
        0.02613537386059761,
        0.012418201193213463
      ],
      "type": "VEC2"
    },
    {
      "bufferView": 0,
      "byteOffset": 59712,
      "componentType": 5125,
      "count": 11148,
      "type": "SCALAR"
    },
    {
      "bufferView": 2,
      "byteOffset": 152544,
      "componentType": 5126,
      "count": 2445,
      "max": [
        2.406611919403076,
        0.030237682163715363,
        1.4448494911193848
      ],
      "min": [
        -0.8157857060432434,
        -0.030064979568123817,
        -2.1178746223449707
      ],
      "type": "VEC3"
    },
    {
      "bufferView": 2,
      "byteOffset": 181884,
      "componentType": 5126,
      "count": 2445,
      "max": [
        0.9977461695671082,
        0.9973466992378235,
        0.9992106556892395
      ],
      "min": [
        -0.998162567615509,
        -0.9980199933052063,
        -0.9986139535903931
      ],
      "type": "VEC3"
    },
    {
      "bufferView": 0,
      "byteOffset": 104304,
      "componentType": 5125,
      "count": 9264,
      "type": "SCALAR"
    }
  ],
  "asset": {
    "extras": {
      "author": "micheus (https://sketchfab.com/micheus)",
      "license": "CC-BY-4.0 (http://creativecommons.org/licenses/by/4.0/)",
      "source": "https://sketchfab.com/3d-models/kite-1de6d3ee67fb4f9fba7a4f6e42d1af2f",
      "title": "Kite"
    },
    "generator": "Sketchfab-12.66.0",
    "version": "2.0"
  },
  "bufferViews": [
    {
      "buffer": 0,
      "byteLength": 141360,
      "name": "floatBufferViews",
      "target": 34963
    },
    {
      "buffer": 0,
      "byteLength": 50848,
      "byteOffset": 141360,
      "byteStride": 8,
      "name": "floatBufferViews",
      "target": 34962
    },
    {
      "buffer": 0,
      "byteLength": 211224,
      "byteOffset": 192208,
      "byteStride": 12,
      "name": "floatBufferViews",
      "target": 34962
    }
  ],
  "buffers": [
    {
      "byteLength": 403432,
      "uri": "scene.bin"
    }
  ],
  "images": [
    {
      "uri": "textures/kite_body_auv_baseColor.png"
    },
    {
      "uri": "textures/kite_tail_auv_baseColor.png"
    },
    {
      "uri": "textures/kite_wire_auv_baseColor.png"
    }
  ],
  "materials": [
    {
      "name": "kite_body_auv",
      "pbrMetallicRoughness": {
        "baseColorTexture": {
          "index": 0
        },
        "metallicFactor": 0.0,
        "roughnessFactor": 0.6
      }
    },
    {
      "name": "kite_tail_auv",
      "pbrMetallicRoughness": {
        "baseColorTexture": {
          "index": 1
        },
        "metallicFactor": 0.0,
        "roughnessFactor": 0.6
      }
    },
    {
      "name": "kite_wire_auv",
      "pbrMetallicRoughness": {
        "baseColorTexture": {
          "index": 2
        },
        "metallicFactor": 0.0,
        "roughnessFactor": 0.6
      }
    },
    {
      "name": "line",
      "pbrMetallicRoughness": {
        "baseColorFactor": [
          0.9504074916579607,
          0.9190880750684761,
          0.7535818102106762,
          1.0
        ],
        "metallicFactor": 0.0,
        "roughnessFactor": 0.6
      }
    }
  ],
  "meshes": [
    {
      "name": "Object_0",
      "primitives": [
        {
          "attributes": {
            "NORMAL": 1,
            "POSITION": 0,
            "TEXCOORD_0": 2
          },
          "indices": 3,
          "material": 0,
          "mode": 4
        }
      ]
    },
    {
      "name": "Object_1",
      "primitives": [
        {
          "attributes": {
            "NORMAL": 5,
            "POSITION": 4,
            "TEXCOORD_0": 6
          },
          "indices": 7,
          "material": 1,
          "mode": 4
        }
      ]
    },
    {
      "name": "Object_2",
      "primitives": [
        {
          "attributes": {
            "NORMAL": 9,
            "POSITION": 8,
            "TEXCOORD_0": 10
          },
          "indices": 11,
          "material": 2,
          "mode": 4
        }
      ]
    },
    {
      "name": "Object_3",
      "primitives": [
        {
          "attributes": {
            "NORMAL": 13,
            "POSITION": 12
          },
          "indices": 14,
          "material": 3,
          "mode": 4
        }
      ]
    }
  ],
  "nodes": [
    {
      "children": [
        1
      ],
      "matrix": [
        0.1548932045698166,
        0.0,
        0.0,
        0.0,
        0.0,
        3.439320041427698e-17,
        -0.1548932045698166,
        0.0,
        0.0,
        0.1548932045698166,
        3.439320041427698e-17,
        0.0,
        0.0,
        0.0,
        0.0,
        1.0
      ],
      "name": "Sketchfab_model"
    },
    {
      "children": [
        2,
        3,
        4,
        5
      ],
      "name": "kite.obj.cleaner.materialmerger.gles"
    },
    {
      "mesh": 0,
      "name": "Object_2"
    },
    {
      "mesh": 1,
      "name": "Object_3"
    },
    {
      "mesh": 2,
      "name": "Object_4"
    },
    {
      "mesh": 3,
      "name": "Object_5"
    }
  ],
  "samplers": [
    {
      "magFilter": 9729,
      "minFilter": 9987,
      "wrapS": 10497,
      "wrapT": 10497
    }
  ],
  "scene": 0,
  "scenes": [
    {
      "name": "Sketchfab_Scene",
      "nodes": [
        0
      ]
    }
  ],
  "textures": [
    {
      "sampler": 0,
      "source": 0
    },
    {
      "sampler": 0,
      "source": 1
    },
    {
      "sampler": 0,
      "source": 2
    }
  ]
}
