{
  "accessors": [
    {
      "bufferView": 2,
      "componentType": 5126,
      "count": 65533,
      "max": [
        8.011539459228516,
        8.095620155334473,
        3.0045878887176514
      ],
      "min": [
        -9.619918823242188,
        -7.285738945007324,
        -11.046030044555664
      ],
      "type": "VEC3"
    },
    {
      "bufferView": 2,
      "byteOffset": 786396,
      "componentType": 5126,
      "count": 65533,
      "max": [
        0.9999698996543884,
        0.9999821782112122,
        0.9999915957450867
      ],
      "min": [
        -0.9996209144592285,
        -0.9965513944625854,
        -0.9999915957450867
      ],
      "type": "VEC3"
    },
    {
      "bufferView": 1,
      "componentType": 5126,
      "count": 65533,
      "max": [
        0.7177079916000366,
        0.7782676219940186
      ],
      "min": [
        0.2935729920864105,
        0.07343447208404541
      ],
      "type": "VEC2"
    },
    {
      "bufferView": 0,
      "componentType": 5125,
      "count": 65535,
      "type": "SCALAR"
    },
    {
      "bufferView": 2,
      "byteOffset": 1572792,
      "componentType": 5126,
      "count": 65533,
      "max": [
        8.011539459228516,
        8.095620155334473,
        4.425907135009766
      ],
      "min": [
        -7.530783176422119,
        -5.0077691078186035,
        -11.046030044555664
      ],
      "type": "VEC3"
    },
    {
      "bufferView": 2,
      "byteOffset": 2359188,
      "componentType": 5126,
      "count": 65533,
      "max": [
        0.999970018863678,
        0.9989809989929199,
        0.9981389045715332
      ],
      "min": [
        -0.9996408224105835,
        -0.999839186668396,
        -0.9984405040740967
      ],
      "type": "VEC3"
    },
    {
      "bufferView": 1,
      "byteOffset": 524264,
      "componentType": 5126,
      "count": 65533,
      "max": [
        0.7177079916000366,
        0.7782676219940186
      ],
      "min": [
        0.2935729920864105,
        0.07343447208404541
      ],
      "type": "VEC2"
    },
    {
      "bufferView": 0,
      "byteOffset": 262140,
      "componentType": 5125,
      "count": 65535,
      "type": "SCALAR"
    },
    {
      "bufferView": 2,
      "byteOffset": 3145584,
      "componentType": 5126,
      "count": 7350,
      "max": [
        7.998948097229004,
        3.2282259464263916,
        0.7052491903305054
      ],
      "min": [
        2.195439100265503,
        -2.219022035598755,
        -3.275454044342041
      ],
      "type": "VEC3"
    },
    {
      "bufferView": 2,
      "byteOffset": 3233784,
      "componentType": 5126,
      "count": 7350,
      "max": [
        0.9987452030181885,
        0.9882764220237732,
        0.9756240248680115
      ],
      "min": [
        -0.996077299118042,
        -0.9725629091262817,
        -0.9755902886390686
      ],
      "type": "VEC3"
    },
    {
      "bufferView": 1,
      "byteOffset": 1048528,
      "componentType": 5126,
      "count": 7350,
      "max": [
        0.7177079916000366,
        0.7782676219940186
      ],
      "min": [
        0.2935729920864105,
        0.07343447208404541
      ],
      "type": "VEC2"
    },
    {
      "bufferView": 0,
      "byteOffset": 524280,
      "componentType": 5125,
      "count": 7350,
      "type": "SCALAR"
    },
    {
      "bufferView": 2,
      "byteOffset": 3321984,
      "componentType": 5126,
      "count": 39424,
      "max": [
        1.8806860446929932,
        3.3917291164398193,
        4.218441009521484
      ],
      "min": [
        -2.420933961868286,
        -2.0091888904571533,
        -3.4440059661865234
      ],
      "type": "VEC3"
    },
    {
      "bufferView": 2,
      "byteOffset": 3795072,
      "componentType": 5126,
      "count": 39424,
      "max": [
        0.9999648928642273,
        0.9998977184295654,
        0.9999917149543762
      ],
      "min": [
        -0.9999911785125732,
        -0.9999372959136963,
        -0.9999514818191528
      ],
      "type": "VEC3"
    },
    {
      "bufferView": 1,
      "byteOffset": 1107328,
      "componentType": 5126,
      "count": 39424,
      "max": [
        0.5014209747314453,
        0.9632682204246521
      ],
      "min": [
        0.3680430054664612,
        0.6589345932006836
      ],
      "type": "VEC2"
    },
    {
      "bufferView": 0,
      "byteOffset": 553680,
      "componentType": 5125,
      "count": 225966,
      "type": "SCALAR"
    },
    {
      "bufferView": 2,
      "byteOffset": 4268160,
      "componentType": 5126,
      "count": 11338,
      "max": [
        2.1761960983276367,
        3.026700973510742,
        0.9225986003875732
      ],
      "min": [
        -3.828200101852417,
        -2.901060104370117,
        -6.250763893127441
      ],
      "type": "VEC3"
    },
    {
      "bufferView": 2,
      "byteOffset": 4404216,
      "componentType": 5126,
      "count": 11338,
      "max": [
        0.999732494354248,
        0.998894453048706,
        0.9991462230682373
      ],
      "min": [
        -0.9990730285644531,
        -0.9997320175170898,
        -0.9977695941925049
      ],
      "type": "VEC3"
    },
    {
      "bufferView": 1,
      "byteOffset": 1422720,
      "componentType": 5126,
      "count": 11338,
      "max": [
        0.4931434988975525,
        0.5868656039237976
      ],
      "min": [
        0.36878201365470886,
        0.4209707975387573
      ],
      "type": "VEC2"
    },
    {
      "bufferView": 0,
      "byteOffset": 1457544,
      "componentType": 5125,
      "count": 66054,
      "type": "SCALAR"
    }
  ],
  "asset": {
    "extras": {
      "author": "3Dee (https://sketchfab.com/mellydeeis)",
      "license": "CC-BY-4.0 (http://creativecommons.org/licenses/by/4.0/)",
      "source": "https://sketchfab.com/3d-models/grapes-9396a10bd8804811a14b58f50d543575",
      "title": "Grapes"
    },
    "generator": "Sketchfab-12.67.0",
    "version": "2.0"
  },
  "bufferViews": [
    {
      "buffer": 0,
      "byteLength": 1721760,
      "name": "floatBufferViews",
      "target": 34963
    },
    {
      "buffer": 0,
      "byteLength": 1513424,
      "byteOffset": 1721760,
      "byteStride": 8,
      "name": "floatBufferViews",
      "target": 34962
    },
    {
      "buffer": 0,
      "byteLength": 4540272,
      "byteOffset": 3235184,
      "byteStride": 12,
      "name": "floatBufferViews",
      "target": 34962
    }
  ],
  "buffers": [
    {
      "byteLength": 7775456,
      "uri": "scene.bin"
    }
  ],
  "extensionsUsed": [
    "KHR_materials_clearcoat"
  ],
  "images": [
    {
      "uri": "textures/Material_baseColor.jpeg"
    },
    {
      "uri": "textures/Material_metallicRoughness.png"
    },
    {
      "uri": "textures/Material_clearcoat.png"
    },
    {
      "uri": "textures/Material_001_metallicRoughness.png"
    },
    {
      "uri": "textures/Material_002_baseColor.jpeg"
    },
    {
      "uri": "textures/Material_002_metallicRoughness.png"
    },
    {
      "uri": "textures/Material_002_clearcoat.png"
    }
  ],
  "materials": [
    {
      "doubleSided": true,
      "extensions": {
        "KHR_materials_clearcoat": {
          "clearcoatFactor": 0.2830188679245283,
          "clearcoatRoughnessFactor": 0.3018867924528302,
          "clearcoatTexture": {
            "index": 2
          }
        }
      },
      "name": "Material",
      "pbrMetallicRoughness": {
        "baseColorFactor": [
          0.5471698113207547,
          0.5471698113207547,
          0.5471698113207547,
          1.0
        ],
        "baseColorTexture": {
          "index": 0
        },
        "metallicFactor": 0.7547169811320755,
        "metallicRoughnessTexture": {
          "index": 1
        },
        "roughnessFactor": 0.0
      }
    },
    {
      "doubleSided": true,
      "name": "Material_001",
      "pbrMetallicRoughness": {
        "baseColorFactor": [
          0.7295597484276729,
          0.7295597484276729,
          0.7295597484276729,
          1.0
        ],
        "baseColorTexture": {
          "index": 0
        },
        "metallicRoughnessTexture": {
          "index": 3
        }
      }
    },
    {
      "doubleSided": true,
      "extensions": {
        "KHR_materials_clearcoat": {
          "clearcoatFactor": 0.3584905660377358,
          "clearcoatRoughnessFactor": 0.2578616352201258,
          "clearcoatTexture": {
            "index": 6
          }
        }
      },
      "name": "Material_002",
      "pbrMetallicRoughness": {
        "baseColorFactor": [
          0.5220125786163522,
          0.5220125786163522,
          0.5220125786163522,
          1.0
        ],
        "baseColorTexture": {
          "index": 4
        },
        "metallicRoughnessTexture": {
          "index": 5
        }
      }
    }
  ],
  "meshes": [
    {
      "name": "Material_002-material",
      "primitives": [
        {
          "attributes": {
            "NORMAL": 1,
            "POSITION": 0,
            "TEXCOORD_0": 2
          },
          "indices": 3,
          "material": 2,
          "mode": 4
        }
      ]
    },
    {
      "name": "Material_002-material",
      "primitives": [
        {
          "attributes": {
            "NORMAL": 5,
            "POSITION": 4,
            "TEXCOORD_0": 6
          },
          "indices": 7,
          "material": 2,
          "mode": 4
        }
      ]
    },
    {
      "name": "Material_002-material",
      "primitives": [
        {
          "attributes": {
            "NORMAL": 9,
            "POSITION": 8,
            "TEXCOORD_0": 10
          },
          "indices": 11,
          "material": 2,
          "mode": 4
        }
      ]
    },
    {
      "name": "Material_001-material",
      "primitives": [
        {
          "attributes": {
            "NORMAL": 13,
            "POSITION": 12,
            "TEXCOORD_0": 14
          },
          "indices": 15,
          "material": 1,
          "mode": 4
        }
      ]
    },
    {
      "name": "Material-material",
      "primitives": [
        {
          "attributes": {
            "NORMAL": 17,
            "POSITION": 16,
            "TEXCOORD_0": 18
          },
          "indices": 19,
          "material": 0,
          "mode": 4
        }
      ]
    }
  ],
  "nodes": [
    {
      "children": [
        1
      ],
      "matrix": [
        1.0,
        0.0,
        0.0,
        0.0,
        0.0,
        2.220446049250313e-16,
        -1.0,
        0.0,
        0.0,
        1.0,
        2.220446049250313e-16,
        0.0,
        0.0,
        0.0,
        0.0,
        1.0
      ],
      "name": "Sketchfab_model"
    },
    {
      "children": [
        2,
        6,
        8
      ],
      "name": "Collada visual scene group"
    },
    {
      "children": [
        3,
        4,
        5
      ],
      "matrix": [
        0.225201,
        0.2566507,
        -0.01555815,
        0.0,
        -0.1823042,
        0.1739638,
        0.2309307,
        0.0,
        0.1813198,
        -0.1438546,
        0.2515077,
        0.0,
        0.5118529,
        0.8079466,
        2.73242,
        1.0
      ],
      "name": "Plane_006"
    },
    {
      "mesh": 0,
      "name": "Material_002-material"
    },
    {
      "mesh": 1,
      "name": "Material_002-material"
    },
    {
      "mesh": 2,
      "name": "Material_002-material"
    },
    {
      "children": [
        7
      ],
      "matrix": [
        0.9375044,
        -0.1340951,
        0.01423584,
        0.0,
        0.1056845,
        0.7470708,
        0.07718758,
        0.0,
        -0.02772307,
        -0.09360843,
        0.9439604,
        0.0,
        0.01607742,
        1.291501,
        0.8765072,
        1.0
      ],
      "name": "Sphere_048"
    },
    {
      "mesh": 3,
      "name": "Material_001-material"
    },
    {
      "children": [
        9
      ],
      "matrix": [
        0.8436937,
        0.000241128,
        0.0,
        0.0,
        -0.000241128,
        0.8436937,
        0.0,
        0.0,
        0.0,
        0.0,
        0.8436937,
        0.0,
        0.46011,
        1.732651,
        1.870568,
        1.0
      ],
      "name": "Sphere_028"
    },
    {
      "mesh": 4,
      "name": "Material-material"
    }
  ],
  "samplers": [
    {
      "magFilter": 9729,
      "minFilter": 9987,
      "wrapS": 10497,
      "wrapT": 10497
    }
  ],
  "scene": 0,
  "scenes": [
    {
      "name": "Sketchfab_Scene",
      "nodes": [
        0
      ]
    }
  ],
  "textures": [
    {
      "sampler": 0,
      "source": 0
    },
    {
      "sampler": 0,
      "source": 1
    },
    {
      "sampler": 0,
      "source": 2
    },
    {
      "sampler": 0,
      "source": 3
    },
    {
      "sampler": 0,
      "source": 4
    },
    {
      "sampler": 0,
      "source": 5
    },
    {
      "sampler": 0,
      "source": 6
    }
  ]
}
