{
  "accessors": [
    {
      "bufferView": 2,
      "componentType": 5126,
      "count": 1633,
      "max": [
        26.895599365234375,
        10.125499725341797,
        14.135100364685059
      ],
      "min": [
        -49.96820068359375,
        -8.564800262451172,
        2.156100034713745
      ],
      "type": "VEC3"
    },
    {
      "bufferView": 2,
      "byteOffset": 19596,
      "componentType": 5126,
      "count": 1633,
      "max": [
        0.9999637603759766,
        1.0,
        0.999992847442627
      ],
      "min": [
        -0.9999802112579346,
        -1.0,
        -1.0
      ],
      "type": "VEC3"
    },
    {
      "bufferView": 1,
      "componentType": 5126,
      "count": 1633,
      "max": [
        0.9370999932289124,
        0.9585999846458435
      ],
      "min": [
        0.0031999999191612005,
        0.00559999980032444
      ],
      "type": "VEC2"
    },
    {
      "bufferView": 0,
      "componentType": 5125,
      "count": 4839,
      "type": "SCALAR"
    },
    {
      "bufferView": 2,
      "byteOffset": 39192,
      "componentType": 5126,
      "count": 1708,
      "max": [
        11.589900016784668,
        4.588699817657471,
        14.135100364685059
      ],
      "min": [
        -55.67649841308594,
        -7.991000175476074,
        0.000699999975040555
      ],
      "type": "VEC3"
    },
    {
      "bufferView": 2,
      "byteOffset": 59688,
      "componentType": 5126,
      "count": 1708,
      "max": [
        0.9998736381530762,
        0.9999966621398926,
        0.7920138835906982
      ],
      "min": [
        -0.9991450309753418,
        -0.9999840259552002,
        -0.999282717704773
      ],
      "type": "VEC3"
    },
    {
      "bufferView": 1,
      "byteOffset": 13064,
      "componentType": 5126,
      "count": 1708,
      "max": [
        0.9370999932289124,
        0.958299994468689
      ],
      "min": [
        0.0020000000949949026,
        0.14090000092983246
      ],
      "type": "VEC2"
    },
    {
      "bufferView": 0,
      "byteOffset": 19356,
      "componentType": 5125,
      "count": 6789,
      "type": "SCALAR"
    },
    {
      "bufferView": 2,
      "byteOffset": 80184,
      "componentType": 5126,
      "count": 1553,
      "max": [
        26.895599365234375,
        15.696000099182129,
        3.209700107574463
      ],
      "min": [
        -23.625499725341797,
        -14.13539981842041,
        1.8164000511169434
      ],
      "type": "VEC3"
    },
    {
      "bufferView": 2,
      "byteOffset": 98820,
      "componentType": 5126,
      "count": 1553,
      "max": [
        0.103995181620121,
        0.33461248874664307,
        -0.939935028553009
      ],
      "min": [
        -0.12279907613992691,
        -0.29380059242248535,
        -1.0
      ],
      "type": "VEC3"
    },
    {
      "bufferView": 1,
      "byteOffset": 26728,
      "componentType": 5126,
      "count": 1553,
      "max": [
        0.366100013256073,
        0.21699999272823334
      ],
      "min": [
        0.0020000000949949026,
        0.0020000000949949026
      ],
      "type": "VEC2"
    },
    {
      "bufferView": 0,
      "byteOffset": 46512,
      "componentType": 5125,
      "count": 6822,
      "type": "SCALAR"
    },
    {
      "bufferView": 2,
      "byteOffset": 117456,
      "componentType": 5126,
      "count": 7040,
      "max": [
        26.895599365234375,
        15.696000099182129,
        14.005900382995605
      ],
      "min": [
        -54.73899841308594,
        -14.13539981842041,
        1.3121999502182007
      ],
      "type": "VEC3"
    },
    {
      "bufferView": 2,
      "byteOffset": 201936,
      "componentType": 5126,
      "count": 7040,
      "max": [
        1.0,
        1.0,
        0.9999966621398926
      ],
      "min": [
        -1.0,
        -1.0,
        -0.7757418751716614
      ],
      "type": "VEC3"
    },
    {
      "bufferView": 1,
      "byteOffset": 39152,
      "componentType": 5126,
      "count": 7040,
      "max": [
        0.9728999733924866,
        0.9922999739646912
      ],
      "min": [
        0.0020000000949949026,
        0.0020000000949949026
      ],
      "type": "VEC2"
    },
    {
      "bufferView": 0,
      "byteOffset": 73800,
      "componentType": 5125,
      "count": 25560,
      "type": "SCALAR"
    },
    {
      "bufferView": 2,
      "byteOffset": 286416,
      "componentType": 5126,
      "count": 16378,
      "max": [
        26.895599365234375,
        15.696000099182129,
        14.005900382995605
      ],
      "min": [
        -55.67649841308594,
        -14.135199546813965,
        0.000699999975040555
      ],
      "type": "VEC3"
    },
    {
      "bufferView": 2,
      "byteOffset": 482952,
      "componentType": 5126,
      "count": 16378,
      "max": [
        1.0,
        0.9996529221534729,
        1.0
      ],
      "min": [
        -1.0,
        -1.0,
        -1.0
      ],
      "type": "VEC3"
    },
    {
      "bufferView": 1,
      "byteOffset": 95472,
      "componentType": 5126,
      "count": 16378,
      "max": [
        0.9958999752998352,
        0.9980000257492065
      ],
      "min": [
        0.0020000000949949026,
        0.0020000000949949026
      ],
      "type": "VEC2"
    },
    {
      "bufferView": 0,
      "byteOffset": 176040,
      "componentType": 5125,
      "count": 79764,
      "type": "SCALAR"
    }
  ],
  "asset": {
    "extras": {
      "author": "Microsoft (https://sketchfab.com/microsoft)",
      "license": "CC-BY-4.0 (http://creativecommons.org/licenses/by/4.0/)",
      "source": "https://sketchfab.com/3d-models/violin-e989583c447141438e4d6376f4189518",
      "title": "Violin"
    },
    "generator": "Sketchfab-12.68.0",
    "version": "2.0"
  },
  "bufferViews": [
    {
      "buffer": 0,
      "byteLength": 495096,
      "name": "floatBufferViews",
      "target": 34963
    },
    {
      "buffer": 0,
      "byteLength": 226496,
      "byteOffset": 495096,
      "byteStride": 8,
      "name": "floatBufferViews",
      "target": 34962
    },
    {
      "buffer": 0,
      "byteLength": 679488,
      "byteOffset": 721592,
      "byteStride": 12,
      "name": "floatBufferViews",
      "target": 34962
    }
  ],
  "buffers": [
    {
      "byteLength": 1401080,
      "uri": "scene.bin"
    }
  ],
  "images": [
    {
      "uri": "textures/Material__26_baseColor.jpeg"
    }
  ],
  "materials": [
    {
      "doubleSided": true,
      "name": "Material__26",
      "pbrMetallicRoughness": {
        "baseColorTexture": {
          "index": 0
        },
        "metallicFactor": 0.0,
        "roughnessFactor": 0.6
      }
    }
  ],
  "meshes": [
    {
      "name": "Object_0",
      "primitives": [
        {
          "attributes": {
            "NORMAL": 1,
            "POSITION": 0,
            "TEXCOORD_0": 2
          },
          "indices": 3,
          "material": 0,
          "mode": 4
        }
      ]
    },
    {
      "name": "Object_1",
      "primitives": [
        {
          "attributes": {
            "NORMAL": 5,
            "POSITION": 4,
            "TEXCOORD_0": 6
          },
          "indices": 7,
          "material": 0,
          "mode": 4
        }
      ]
    },
    {
      "name": "Object_2",
      "primitives": [
        {
          "attributes": {
            "NORMAL": 9,
            "POSITION": 8,
            "TEXCOORD_0": 10
          },
          "indices": 11,
          "material": 0,
          "mode": 4
        }
      ]
    },
    {
      "name": "Object_3",
      "primitives": [
        {
          "attributes": {
            "NORMAL": 13,
            "POSITION": 12,
            "TEXCOORD_0": 14
          },
          "indices": 15,
          "material": 0,
          "mode": 4
        }
      ]
    },
    {
      "name": "Object_4",
      "primitives": [
        {
          "attributes": {
            "NORMAL": 17,
            "POSITION": 16,
            "TEXCOORD_0": 18
          },
          "indices": 19,
          "material": 0,
          "mode": 4
        }
      ]
    }
  ],
  "nodes": [
    {
      "children": [
        1
      ],
      "matrix": [
        1.0,
        0.0,
        0.0,
        0.0,
        0.0,
        2.220446049250313e-16,
        -1.0,
        0.0,
        0.0,
        1.0,
        2.220446049250313e-16,
        0.0,
        0.0,
        0.0,
        0.0,
        1.0
      ],
      "name": "Sketchfab_model"
    },
    {
      "children": [
        2,
        3,
        4,
        5,
        6
      ],
      "name": "a9e8743dcfcf4854bff0f16aa80e4bc6.obj.cleaner"
    },
    {
      "mesh": 0,
      "name": "Object_2"
    },
    {
      "mesh": 1,
      "name": "Object_3"
    },
    {
      "mesh": 2,
      "name": "Object_4"
    },
    {
      "mesh": 3,
      "name": "Object_5"
    },
    {
      "mesh": 4,
      "name": "Object_6"
    }
  ],
  "samplers": [
    {
      "magFilter": 9729,
      "minFilter": 9987,
      "wrapS": 10497,
      "wrapT": 10497
    }
  ],
  "scene": 0,
  "scenes": [
    {
      "name": "Sketchfab_Scene",
      "nodes": [
        0
      ]
    }
  ],
  "textures": [
    {
      "sampler": 0,
      "source": 0
    }
  ]
}
